
nColumns=19
nRows=49
DataType=double
version=3
OpenSimVersion=4.4-2022-10-11-798caa840
endheader
time	ground_force_calcn_r_vx	ground_force_calcn_r_vy	ground_force_calcn_r_vz	ground_force_calcn_r_px	ground_force_calcn_r_py	ground_force_calcn_r_pz	ground_force_calcn_r_mx	ground_force_calcn_r_my	ground_force_calcn_r_mz	ground_force_calcn_l_vx	ground_force_calcn_l_vy	ground_force_calcn_l_vz	ground_force_calcn_l_px	ground_force_calcn_l_py	ground_force_calcn_l_pz	ground_force_calcn_l_mx	ground_force_calcn_l_my	ground_force_calcn_l_mz
0	0.714623	407.474	-51.2459	-0.206981	0	-0.331333	-0.00423518	-2.41488	0.303706	-4.24398	385.519	52.3535	-0.202337	0	-0.867401	-0.0382805	3.47737	0.472227
0.01	0.536738	406.819	-51.1605	-0.206787	0	-0.331198	-0.00314521	-2.3839	0.299794	-4.22867	386.681	52.5365	-0.202288	0	-0.867296	-0.0382158	3.49456	0.474789
0.02	0.333899	406.068	-51.0586	-0.206561	0	-0.331065	-0.00193297	-2.35076	0.295583	-4.24525	388.033	52.7534	-0.202218	0	-0.867189	-0.0383722	3.50737	0.476829
0.03	0.105435	405.225	-50.9399	-0.206309	0	-0.330936	-0.000602632	-2.31614	0.291157	-4.30255	389.562	53.0024	-0.202122	0	-0.86708	-0.0388172	3.5146	0.478183
0.04	-0.151634	404.295	-50.804	-0.206033	0	-0.330815	0.000855372	-2.28064	0.286587	-4.40881	391.242	53.2805	-0.201998	0	-0.866971	-0.0396131	3.5153	0.478725
0.05	-0.443106	403.276	-50.6496	-0.205737	0	-0.3307	0.00246652	-2.24481	0.281937	-4.57189	393.037	53.5833	-0.201843	0	-0.866864	-0.0408149	3.50878	0.478358
0.06	-0.777834	402.159	-50.4745	-0.205425	0	-0.330591	0.00427268	-2.20908	0.277259	-4.79789	394.904	53.9049	-0.20166	0	-0.8667550000000001	-0.0424578	3.4946	0.477018
0.07000000000000001	-1.16821	400.925	-50.2759	-0.205098	0	-0.330485	0.00633373	-2.17371	0.272583	-5.09051	396.795	54.2385	-0.201453	0	-0.866645	-0.0445497	3.47256	0.474669
0.08	-1.63072	399.547	-50.0501	-0.20476	0	-0.330379	0.008728939999999999	-2.1387	0.267909	-5.45159	398.661	54.5771	-0.201228	0	-0.866534	-0.0470772	3.44264	0.471301
0.09	-2.18557	398	-49.7939	-0.204408	0	-0.330269	0.0115529	-2.10382	0.263209	-5.8816	400.46	54.9142	-0.200994	0	-0.86642	-0.0500099	3.40502	0.466923
0.1	-2.85594	396.271	-49.5048	-0.204049	0	-0.330153	0.014909	-2.06866	0.258431	-6.37996	402.155	55.2443	-0.200761	0	-0.866299	-0.0533022	3.35985	0.461545
0.11	-3.66705	394.354	-49.181	-0.203684	0	-0.330028	0.0189017	-2.03269	0.253502	-6.94552	403.717	55.5634	-0.200542	0	-0.866169	-0.0568971	3.30722	0.45517
0.12	-4.64446	392.254	-48.8219	-0.203323	0	-0.329894	0.0236247	-1.99525	0.248339	-7.57725	405.123	55.8681	-0.20035	0	-0.866026	-0.060732	3.24708	0.447785
0.13	-5.81079	389.984	-48.4296	-0.202979	0	-0.32975	0.0291395	-1.95566	0.242861	-8.27467	406.344	56.1547	-0.200203	0	-0.865866	-0.06474100000000001	3.17924	0.439355
0.14	-7.1812	387.564	-48.0096	-0.202673	0	-0.329598	0.035447	-1.91304	0.236979	-9.03749	407.348	56.4197	-0.200116	0	-0.865681	-0.0688508	3.10332	0.429826
0.15	-8.75848	385.028	-47.5718	-0.202435	0	-0.329444	0.042457	-1.86643	0.230606	-9.86462	408.105	56.6597	-0.200111	0	-0.865465	-0.0729721	3.01889	0.419132
0.16	-10.528	382.418	-47.13	-0.202307	0	-0.329294	0.0499638	-1.81489	0.223671	-10.7527	408.588	56.8709	-0.20021	0	-0.865212	-0.07699010000000001	2.92552	0.407199
0.17	-12.4542	379.784	-46.7005	-0.20234	0	-0.329156	0.0576355	-1.75756	0.21612	-11.6951	408.778	57.0486	-0.20044	0	-0.864913	-0.0807568	2.82269	0.393932
0.18	-14.4817	377.175	-46.3003	-0.202599	0	-0.329043	0.06503059999999999	-1.69373	0.207914	-12.6808	408.648	57.1858	-0.200828	0	-0.864561	-0.0840906	2.70988	0.379217
0.19	-16.5362	374.64	-45.9431	-0.203149	0	-0.32897	0.0716329	-1.62289	0.19902	-13.6946	408.166	57.2727	-0.201404	0	-0.864151	-0.0867877	2.58671	0.36296
0.2	-18.5307	372.226	-45.6363	-0.204059	0	-0.328953	0.07691630000000001	-1.54502	0.189425	-14.7154	407.285	57.2953	-0.202201	0	-0.863672	-0.0886354	2.4532	0.345106
0.21	-20.3712	369.977	-45.3793	-0.205391	0	-0.32901	0.0804197	-1.46056	0.179144	-15.7178	405.946	57.235	-0.203246	0	-0.863117	-0.0894308	2.30974	0.325654
0.22	-21.965	367.929	-45.1629	-0.207194	0	-0.329157	0.0818101	-1.37038	0.168212	-16.671	404.089	57.0699	-0.204569	0	-0.862482	-0.0890006	2.15728	0.304675
0.23	-23.2264	366.099	-44.9695	-0.209498	0	-0.329411	0.080932	-1.27566	0.156695	-17.5395	401.662	56.7765	-0.206195	0	-0.8617590000000001	-0.0872228	1.99744	0.282346
0.24	-24.0831	364.478	-44.7759	-0.21231	0	-0.329779	0.0778277	-1.17786	0.144699	-18.2833	398.621	56.3313	-0.208141	0	-0.860946	-0.08405120000000001	1.83252	0.258963
0.25	-24.4824	363.024	-44.5582	-0.215603	0	-0.330265	0.07272969999999999	-1.07843	0.132369	-18.8618	394.932	55.7117	-0.210421	0	-0.8600410000000001	-0.0795381	1.66539	0.23493
0.26	-24.3978	361.653	-44.2935	-0.219324	0	-0.330863	0.0660313	-0.978793	0.119878	-19.2357	390.561	54.8978	-0.213033	0	-0.859043	-0.0738331	1.49911	0.210717
0.27	-23.8313	360.236	-43.9598	-0.223392	0	-0.331558	0.0582357	-0.880295	0.107423	-19.3702	385.476	53.8727	-0.215965	0	-0.857961	-0.0671597	1.3365	0.186785
0.28	-22.8131	358.602	-43.5371	-0.227709	0	-0.332333	0.0498866	-0.784173	0.0952049	-19.2372	379.645	52.6251	-0.219193	0	-0.856797	-0.0597848	1.17985	0.163547
0.29	-21.3974	356.554	-43.0076	-0.232167	0	-0.333166	0.0414986	-0.691509	0.08340980000000001	-18.8148	373.039	51.151	-0.222687	0	-0.855564	-0.051985	1.0307	0.141329
0.3	-19.6539	353.888	-42.3558	-0.236664	0	-0.334036	0.0334976	-0.6031570000000001	0.0721902	-18.0879	365.637	49.4553	-0.22641	0	-0.854272	-0.0440201	0.889842	0.120358
0.31	-17.6601	350.412	-41.5698	-0.24111	0	-0.334923	0.0261967	-0.519796	0.0616638	-17.0478	357.436	47.5526	-0.230328	0	-0.85293	-0.0361231	0.757383	0.100761
0.32	-15.4952	345.984	-40.6426	-0.24543	0	-0.335813	0.0197958	-0.442008	0.0519224	-15.6938	348.465	45.4687	-0.234404	0	-0.851553	-0.0285031	0.632883	0.0825805
0.33	-13.235	340.523	-39.574	-0.249571	0	-0.33669	0.0143893	-0.370222	0.0430254	-14.0347	338.787	43.2392	-0.238605	0	-0.85015	-0.0213581	0.515566	0.0658014
0.34	-10.9489	334.026	-38.3722	-0.253493	0	-0.337549	0.00998776	-0.304704	0.0350038	-12.0934	328.509	40.9076	-0.242893	0	-0.848731	-0.0148922	0.404537	0.050375
0.35	-8.699389999999999	326.568	-37.0544	-0.25717	0	-0.33838	0.00654246	-0.245599	0.0278671	-9.90884	317.778	38.5221	-0.24723	0	-0.847312	-0.00932407	0.299024	0.0362487
0.36	-6.54164	318.304	-35.6482	-0.260586	0	-0.339179	0.00396616	-0.192986	0.0216133	-7.53441	306.775	36.1312	-0.251569	0	-0.845903	-0.00487676	0.198565	0.0233865
0.37	-4.52253	309.462	-34.1904	-0.26373	0	-0.339937	0.00214765	-0.146957	0.0162363	-5.0327	295.715	33.7807	-0.255858	0	-0.844517	-0.00175329	0.103021	0.0117685
0.38	-2.68012	300.334	-32.7252	-0.266595	0	-0.340651	0.000961586	-0.107755	0.0117413	-2.47004	284.839	31.5115	-0.26004	0	-0.8431689999999999	-0.000109348	0.0126097	0.001395
0.39	-1.04158	291.26	-31.3007	-0.26918	0	-0.341314	0.000271004	-0.0757818	0.00814399	0.089435	274.413	29.3584	-0.264055	0	-0.841873	-2.35824e-05	-0.0723578	-0.00774129
0.4	0.37922	282.614	-29.965	-0.271481	0	-0.341919	-6.9112e-05	-0.0515059	0.00546105	2.58879	264.706	27.3494	-0.267839	0	-0.8406439999999999	-0.00148305	-0.151644	-0.0156678
0.41	1.58493	274.771	-28.7618	-0.273505	0	-0.342459	-0.000205523	-0.0356304	0.00372964	4.97982	255.981	25.5057	-0.271329	0	-0.839499	-0.00437987	-0.225142	-0.0224329
0.42	2.59489	268.072	-27.7272	-0.275259	0	-0.342928	-0.000282841	-0.0292197	0.00302224	7.22086	248.466	23.8425	-0.274461	0	-0.838458	-0.0085103	-0.292834	-0.0281001
0.43	3.44156	262.788	-26.8854	-0.276758	0	-0.343325	-0.000440329	-0.0336223	0.00343984	9.275320000000001	242.341	22.3716	-0.277181	0	-0.837537	-0.0135798	-0.354805	-0.0327537
0.44	4.1653	259.089	-26.2464	-0.278019	0	-0.343646	-0.00080775	-0.0502434	0.0050898	11.1103	237.734	21.1054	-0.279448	0	-0.836754	-0.0192197	-0.411256	-0.0365103
0.45	4.80874	257.033	-25.8056	-0.279067	0	-0.343893	-0.00150281	-0.0803272	0.008064669999999999	12.6997	234.728	20.0575	-0.281238	0	-0.836121	-0.0250198	-0.462441	-0.0395156
0.46	5.41785	256.574	-25.5443	-0.279929	0	-0.344072	-0.00263395	-0.124736	0.0124186	14.0313	233.359	19.2392	-0.282552	0	-0.835646	-0.0305729	-0.508468	-0.0419205
0.47	6.04607	257.572	-25.4341	-0.280642	0	-0.344192	-0.00432015	-0.184045	0.0181736	15.115	233.619	18.6561	-0.28342	0	-0.835327	-0.0355141	-0.548912	-0.0438343
0.48	6.75263	259.82	-25.4405	-0.281246	0	-0.344267	-0.00671973	-0.258554	0.0253166	15.9864	235.441	18.3053	-0.283897	0	-0.835154	-0.0395531	-0.582522	-0.0452904
